<svg xmlns="http://www.w3.org/2000/svg" viewBox="0 0 1024 1024" fill="none">
  <defs>
    <style>
      .heavy { stroke:#0F5B57; stroke-width:24; stroke-linecap:round; stroke-linejoin:round; }
      .mid { stroke:#0F5B57; stroke-width:18; stroke-linecap:round; stroke-linejoin:round; }
      .fine { stroke:#0F5B57; stroke-width:13; stroke-linecap:round; stroke-linejoin:round; }
    </style>
  </defs>

  <!-- dome / canopy -->
  <path class="heavy" d="M194 334 A318 318 0 0 1 830 334"/>
  <path class="mid" d="M267 334 A245 245 0 0 1 757 334"/>

  <!-- entablature -->
  <path class="heavy" d="M152 377 H872"/>
  <path class="mid" d="M182 419 H842"/>
  <path class="heavy" d="M154 378 C129 378 129 419 154 419"/>
  <path class="heavy" d="M870 378 C895 378 895 419 870 419"/>

  <!-- left columns -->
  <path class="mid" d="M214 461 H369"/>
  <path class="mid" d="M231 514 H352"/>
  <path class="mid" d="M231 804 H352"/>
  <path class="mid" d="M205 848 H378"/>

  <path class="heavy" d="M240 520 V798"/>
  <path class="fine" d="M286 520 V798"/>
  <path class="fine" d="M330 520 V798"/>

  <!-- right columns -->
  <path class="mid" d="M655 461 H810"/>
  <path class="mid" d="M672 514 H793"/>
  <path class="mid" d="M672 804 H793"/>
  <path class="mid" d="M646 848 H819"/>

  <path class="heavy" d="M784 520 V798"/>
  <path class="fine" d="M738 520 V798"/>
  <path class="fine" d="M694 520 V798"/>

  <!-- interior arch -->
  <path class="heavy" d="M334 798 V635"/>
  <path class="heavy" d="M690 798 V635"/>
  <path class="heavy" d="M334 635 A178 178 0 0 1 690 635"/>
  <path class="mid" d="M377 632 A135 135 0 0 1 647 632"/>

  <!-- lower plinth -->
  <path class="mid" d="M199 892 H825"/>
  <path class="heavy" d="M163 930 H861"/>
</svg>